<svg width="299" height="67" viewBox="0 0 299 67" fill="none" xmlns="http://www.w3.org/2000/svg">
<g filter="url(#filter0_d_1_7)">
<path d="M26.525 2C33.2983 2 38.3117 3.12 41.565 5.36C44.8717 7.54666 46.525 11.44 46.525 17.04C46.525 22.64 44.8983 27.0933 41.645 30.4C38.3917 33.6533 33.1383 35.28 25.885 35.28H19.165L18.925 52.64L25.165 53.2C25.165 54.6933 24.7117 56.2933 23.805 58H5.805L5.565 55.28C7.805 54.4267 10.0983 53.7867 12.445 53.36C12.125 32.56 11.8583 17.0933 11.645 6.96C10.205 6.69333 7.85833 6.05333 4.605 5.04L5.005 2H26.525ZM25.085 30.08C29.6717 30.0267 33.165 28.88 35.565 26.64C37.965 24.3467 39.165 21.3333 39.165 17.6C39.165 13.8667 37.9917 11.28 35.645 9.84C33.2983 8.34666 29.5383 7.6 24.365 7.6C23.405 7.6 21.7783 7.62666 19.485 7.68C19.485 7.73333 19.405 15.2267 19.245 30.16L25.085 30.08ZM92.0606 45.44C92.2206 45.76 92.434 46.9867 92.7006 49.12C93.0206 51.2533 93.1806 53.0667 93.1806 54.56C93.1806 56 93.1006 57.1467 92.9406 58H54.9406L54.7006 55.2C57.2073 54.2933 59.474 53.68 61.5006 53.36C61.1806 32.3467 60.914 16.8533 60.7006 6.88C59.314 6.66666 56.9673 6.02667 53.6606 4.96L54.0606 2H73.3406C74.2473 3.49333 74.7006 5.06666 74.7006 6.72C71.8206 6.82666 69.7406 6.90666 68.4606 6.96C68.354 17.2 68.2473 26.5333 68.1406 34.96C68.0873 43.3333 68.034 49.2267 67.9806 52.64H85.5006L87.4206 45.04C90.0873 45.04 91.634 45.1733 92.0606 45.44ZM115.004 7.12L114.204 52.56L120.924 53.2C120.924 54.6933 120.471 56.2933 119.564 58H101.164L100.924 55.2C103.378 54.3467 105.804 53.7067 108.204 53.28C108.098 49.8133 107.911 42.6667 107.644 31.84C107.431 21.0133 107.244 12.64 107.084 6.72C104.951 6.29333 102.551 5.65333 99.8844 4.8L100.124 2H120.124C121.031 3.70666 121.484 5.30666 121.484 6.8C118.764 7.01333 116.604 7.12 115.004 7.12ZM143.315 11.92L142.515 52.56L149.235 53.2C149.235 54.6933 148.782 56.2933 147.875 58H129.475L129.235 55.2C132.115 54.24 134.568 53.6 136.595 53.28C136.488 49.8133 136.302 42.6667 136.035 31.84C135.822 21.0133 135.635 12.64 135.475 6.72C133.448 6.4 131.048 5.76 128.275 4.8L128.515 2H144.355L173.555 48.64L172.195 6.72C170.222 6.34667 167.848 5.70667 165.075 4.8L165.315 2H185.315C186.222 3.70666 186.675 5.30666 186.675 6.8C184.008 7.01333 181.875 7.12 180.275 7.12L179.475 58H171.715L143.315 11.92ZM205.648 40.8L205.408 52.56L212.128 53.2C212.128 54.6933 211.674 56.2933 210.768 58H192.368L192.128 55.2C194.634 54.3467 197.088 53.7067 199.488 53.28C198.954 32.5867 198.528 17.0667 198.208 6.72C196.234 6.34667 193.861 5.70667 191.088 4.8L191.327 2H211.328C212.234 3.70666 212.688 5.30666 212.688 6.8C210.021 7.01333 207.888 7.12 206.288 7.12C206.181 12.6667 206.074 17.68 205.968 22.16C205.914 26.64 205.861 29.7867 205.808 31.6L224.928 7.44L218.528 6.8C218.528 5.30666 218.981 3.70666 219.888 2H240.208L240.448 5.52C237.994 6.37333 235.594 7.01333 233.248 7.44L217.488 26.4L235.888 52.56L242.608 53.2C242.608 54.6933 242.154 56.2933 241.248 58H231.248L213.088 31.84L205.648 40.8ZM270.238 52.8C281.011 52.8 286.398 45.2267 286.398 30.08C286.398 14.88 281.011 7.28 270.238 7.28C265.171 7.28 261.038 8.02667 257.838 9.52C254.958 15.2267 253.518 21.8133 253.518 29.28C253.518 36.6933 254.745 42.48 257.198 46.64C259.705 50.7467 264.051 52.8 270.238 52.8ZM245.678 30.32C245.678 20.9333 247.598 13.7067 251.438 8.64C255.331 3.52 261.625 0.959995 270.318 0.959995C279.065 0.959995 285.225 3.30666 288.798 8C292.425 12.64 294.238 19.68 294.238 29.12C294.238 38.56 292.291 45.8933 288.398 51.12C284.558 56.3467 278.398 58.96 269.918 58.96C261.491 58.96 255.331 56.5333 251.438 51.68C247.598 46.8267 245.678 39.7067 245.678 30.32Z" fill="#F8F398"/>
<path d="M41.565 5.36L40.9979 6.18364L41.0056 6.18895L41.0134 6.19411L41.565 5.36ZM41.645 30.4L42.3521 31.1071L42.3578 31.1013L41.645 30.4ZM19.165 35.28V34.28H18.1787L18.1651 35.2662L19.165 35.28ZM18.925 52.64L17.9251 52.6262L17.9123 53.5531L18.8356 53.636L18.925 52.64ZM25.165 53.2H26.165V52.2857L25.2544 52.204L25.165 53.2ZM23.805 58V59H24.4061L24.6881 58.4692L23.805 58ZM5.805 58L4.80887 58.0879L4.88935 59H5.805V58ZM5.565 55.28L5.209 54.3455L4.50241 54.6147L4.56887 55.3679L5.565 55.28ZM12.445 53.36L12.6239 54.3439L13.4579 54.1922L13.4449 53.3446L12.445 53.36ZM11.645 6.96L12.6448 6.93895L12.6276 6.12497L11.8271 5.97672L11.645 6.96ZM4.605 5.04L3.61355 4.90954L3.5037 5.74435L4.30762 5.99475L4.605 5.04ZM5.005 2V0.999996H4.12796L4.01355 1.86954L5.005 2ZM25.085 30.08L25.0734 29.0801L25.0713 29.0801L25.085 30.08ZM35.565 26.64L36.2474 27.3711L36.2559 27.363L35.565 26.64ZM35.645 9.84L35.1081 10.6837L35.115 10.688L35.122 10.6923L35.645 9.84ZM19.485 7.68L19.4618 6.68027L18.485 6.70299V7.68H19.485ZM19.245 30.16L18.2451 30.1493L18.2341 31.1739L19.2587 31.1599L19.245 30.16ZM26.525 3C33.2247 3 37.9929 4.11463 40.9979 6.18364L42.1321 4.53635C38.6304 2.12537 33.3719 0.999996 26.525 0.999996V3ZM41.0134 6.19411C43.9343 8.1257 45.525 11.6253 45.525 17.04H47.525C47.525 11.2547 45.809 6.96763 42.1166 4.52588L41.0134 6.19411ZM45.525 17.04C45.525 22.4355 43.9645 26.6166 40.9322 29.6987L42.3578 31.1013C45.8322 27.57 47.525 22.8445 47.525 17.04H45.525ZM40.9379 29.6929C37.9558 32.675 33.0212 34.28 25.885 34.28V36.28C33.2555 36.28 38.8276 34.6316 42.3521 31.1071L40.9379 29.6929ZM25.885 34.28H19.165V36.28H25.885V34.28ZM18.1651 35.2662L17.9251 52.6262L19.9249 52.6538L20.1649 35.2938L18.1651 35.2662ZM18.8356 53.636L25.0756 54.196L25.2544 52.204L19.0144 51.644L18.8356 53.636ZM24.165 53.2C24.165 54.4887 23.7737 55.9274 22.9219 57.5308L24.6881 58.4692C25.6496 56.6592 26.165 54.898 26.165 53.2H24.165ZM23.805 57H5.805V59H23.805V57ZM6.80113 57.9121L6.56113 55.1921L4.56887 55.3679L4.80887 58.0879L6.80113 57.9121ZM5.921 56.2145C8.10389 55.3829 10.3379 54.7595 12.6239 54.3439L12.2661 52.3761C9.85872 52.8138 7.50611 53.4704 5.209 54.3455L5.921 56.2145ZM13.4449 53.3446C13.1249 32.5443 12.8582 17.0753 12.6448 6.93895L10.6452 6.98105C10.8585 17.1114 11.1251 32.5757 11.4451 53.3754L13.4449 53.3446ZM11.8271 5.97672C10.451 5.72188 8.15416 5.09809 4.90238 4.08524L4.30762 5.99475C7.5625 7.00857 9.95901 7.66478 11.4629 7.94328L11.8271 5.97672ZM5.59645 5.17045L5.99645 2.13045L4.01355 1.86954L3.61355 4.90954L5.59645 5.17045ZM5.005 3H26.525V0.999996H5.005V3ZM25.0966 31.0799C29.8334 31.0249 33.6037 29.8385 36.2473 27.3711L34.8827 25.9089C32.7264 27.9215 29.51 29.0285 25.0734 29.0801L25.0966 31.0799ZM36.2559 27.363C38.8788 24.8566 40.165 21.569 40.165 17.6H38.165C38.165 21.0977 37.0512 23.8367 34.8741 25.917L36.2559 27.363ZM40.165 17.6C40.165 13.6574 38.9125 10.6718 36.168 8.98767L35.122 10.6923C37.0708 11.8882 38.165 14.0759 38.165 17.6H40.165ZM36.1819 8.99633C33.5879 7.34562 29.5892 6.6 24.365 6.6V8.6C29.4875 8.6 33.0088 9.3477 35.1081 10.6837L36.1819 8.99633ZM24.365 6.6C23.3922 6.6 21.7552 6.62693 19.4618 6.68027L19.5083 8.67973C21.8015 8.6264 23.4178 8.6 24.365 8.6V6.6ZM18.485 7.68C18.485 7.67971 18.4839 7.79291 18.4813 8.0383C18.4788 8.27739 18.4751 8.63274 18.4701 9.1044C18.4601 10.0477 18.4451 11.456 18.4251 13.3293C18.3851 17.076 18.3251 22.6826 18.2451 30.1493L20.2449 30.1707C20.4049 15.2444 20.485 7.74047 20.485 7.68H18.485ZM19.2587 31.1599L25.0987 31.0799L25.0713 29.0801L19.2313 29.1601L19.2587 31.1599ZM92.0606 45.44L92.9551 44.9928L92.8292 44.7411L92.5906 44.592L92.0606 45.44ZM92.7006 49.12L91.7084 49.244L91.7099 49.2562L91.7117 49.2683L92.7006 49.12ZM92.9406 58V59H93.7706L93.9235 58.1843L92.9406 58ZM54.9406 58L53.9443 58.0854L54.0227 59H54.9406V58ZM54.7006 55.2L54.3605 54.2596L53.6387 54.5207L53.7043 55.2854L54.7006 55.2ZM61.5006 53.36L61.6566 54.3478L62.5137 54.2124L62.5005 53.3448L61.5006 53.36ZM60.7006 6.88L61.7004 6.85861L61.6824 6.01928L60.8527 5.89162L60.7006 6.88ZM53.6606 4.96L52.6696 4.82608L52.5576 5.65493L53.3536 5.9117L53.6606 4.96ZM54.0606 2V0.999996H53.1867L53.0696 1.86608L54.0606 2ZM73.3406 2L74.1954 1.48102L73.9034 0.999996H73.3406V2ZM74.7006 6.72L74.7376 7.71931L75.7006 7.68365V6.72H74.7006ZM68.4606 6.96L68.419 5.96087L67.4706 6.00039L67.4607 6.94958L68.4606 6.96ZM68.1406 34.96L67.1407 34.9473L67.1406 34.9536L68.1406 34.96ZM67.9806 52.64L66.9807 52.6244L66.9649 53.64H67.9806V52.64ZM85.5006 52.64V53.64H86.2794L86.4702 52.8849L85.5006 52.64ZM87.4206 45.04V44.04H86.6418L86.4511 44.7951L87.4206 45.04ZM91.1662 45.8872C91.1514 45.8575 91.1735 45.8978 91.2185 46.0846C91.2582 46.2488 91.304 46.4755 91.3554 46.7713C91.4581 47.3617 91.5758 48.1836 91.7084 49.244L93.6929 48.996C93.5588 47.923 93.4365 47.065 93.3258 46.4287C93.2706 46.1111 93.2164 45.8379 93.1627 45.6154C93.1145 45.4155 93.0499 45.1825 92.9551 44.9928L91.1662 45.8872ZM91.7117 49.2683C92.0273 51.3721 92.1806 53.1328 92.1806 54.56H94.1806C94.1806 53.0005 94.014 51.1345 93.6896 48.9717L91.7117 49.2683ZM92.1806 54.56C92.1806 55.9728 92.1014 57.0497 91.9578 57.8157L93.9235 58.1843C94.0999 57.2436 94.1806 56.0272 94.1806 54.56H92.1806ZM92.9406 57H54.9406V59H92.9406V57ZM55.937 57.9146L55.697 55.1146L53.7043 55.2854L53.9443 58.0854L55.937 57.9146ZM55.0408 56.1404C57.5044 55.2493 59.7081 54.6554 61.6566 54.3478L61.3447 52.3722C59.2399 52.7046 56.9102 53.3374 54.3605 54.2596L55.0408 56.1404ZM62.5005 53.3448C62.1805 32.3311 61.9138 16.8352 61.7004 6.85861L59.7009 6.90138C59.9141 16.8715 60.1807 32.3622 60.5007 53.3752L62.5005 53.3448ZM60.8527 5.89162C59.5539 5.69181 57.276 5.07551 53.9676 4.00829L53.3536 5.9117C56.6586 6.97782 59.0741 7.64152 60.5486 7.86837L60.8527 5.89162ZM54.6516 5.09391L55.0516 2.13391L53.0696 1.86608L52.6696 4.82608L54.6516 5.09391ZM54.0606 3H73.3406V0.999996H54.0606V3ZM72.4858 2.51897C73.3031 3.86511 73.7006 5.26021 73.7006 6.72H75.7006C75.7006 4.87311 75.1914 3.12155 74.1954 1.48102L72.4858 2.51897ZM74.6636 5.72068C71.7835 5.82735 69.7015 5.90743 68.419 5.96087L68.5023 7.95913C69.7798 7.9059 71.8578 7.82597 74.7376 7.71931L74.6636 5.72068ZM67.4607 6.94958C67.354 17.189 67.2474 26.5216 67.1407 34.9473L69.1405 34.9727C69.2472 26.5451 69.3539 17.211 69.4606 6.97042L67.4607 6.94958ZM67.1406 34.9536C67.0873 43.327 67.034 49.2162 66.9807 52.6244L68.9805 52.6556C69.0339 49.2372 69.0873 43.3396 69.1406 34.9664L67.1406 34.9536ZM67.9806 53.64H85.5006V51.64H67.9806V53.64ZM86.4702 52.8849L88.3902 45.2849L86.4511 44.7951L84.5311 52.3951L86.4702 52.8849ZM87.4206 46.04C88.7425 46.04 89.7631 46.0732 90.4947 46.1363C90.8614 46.1679 91.1368 46.2055 91.332 46.2451C91.5547 46.2902 91.5834 46.321 91.5306 46.288L92.5906 44.592C92.3245 44.4257 91.9999 44.3398 91.7293 44.2849C91.4311 44.2245 91.0731 44.1787 90.6665 44.1437C89.8515 44.0734 88.7655 44.04 87.4206 44.04V46.04ZM115.004 7.12V6.12H114.022L114.005 7.10239L115.004 7.12ZM114.204 52.56L113.205 52.5424L113.188 53.4677L114.11 53.5555L114.204 52.56ZM120.924 53.2H121.924V52.2907L121.019 52.2045L120.924 53.2ZM119.564 58V59H120.165L120.447 58.4692L119.564 58ZM101.164 58L100.168 58.0854L100.246 59H101.164V58ZM100.924 55.2L100.596 54.2555L99.8616 54.5109L99.928 55.2854L100.924 55.2ZM108.204 53.28L108.379 54.2646L109.23 54.1133L109.204 53.2492L108.204 53.28ZM107.644 31.84L106.645 31.8597L106.645 31.8646L107.644 31.84ZM107.084 6.72L108.084 6.69298L108.062 5.89581L107.28 5.73942L107.084 6.72ZM99.8844 4.8L98.888 4.7146L98.8199 5.50932L99.5796 5.75242L99.8844 4.8ZM100.124 2V0.999996H99.2064L99.128 1.9146L100.124 2ZM120.124 2L121.007 1.53084L120.725 0.999996H120.124V2ZM121.484 6.8L121.563 7.79693L122.484 7.72464V6.8H121.484ZM114.005 7.10239L113.205 52.5424L115.204 52.5776L116.004 7.1376L114.005 7.10239ZM114.11 53.5555L120.83 54.1955L121.019 52.2045L114.299 51.5645L114.11 53.5555ZM119.924 53.2C119.924 54.4887 119.533 55.9274 118.681 57.5308L120.447 58.4692C121.409 56.6592 121.924 54.898 121.924 53.2H119.924ZM119.564 57H101.164V59H119.564V57ZM102.161 57.9146L101.921 55.1146L99.928 55.2854L100.168 58.0854L102.161 57.9146ZM101.253 56.1445C103.659 55.3074 106.035 54.6814 108.379 54.2646L108.029 52.2954C105.574 52.732 103.096 53.3859 100.596 54.2555L101.253 56.1445ZM109.204 53.2492C109.097 49.7862 108.911 42.6426 108.644 31.8154L106.645 31.8646C106.911 42.6907 107.098 49.8405 107.205 53.3108L109.204 53.2492ZM108.644 31.8203C108.431 20.9928 108.244 12.6166 108.084 6.69298L106.085 6.74701C106.245 12.6634 106.431 21.0338 106.645 31.8597L108.644 31.8203ZM107.28 5.73942C105.193 5.32182 102.83 4.69254 100.189 3.84757L99.5796 5.75242C102.272 6.61412 104.71 7.26484 106.888 7.70058L107.28 5.73942ZM100.881 4.8854L101.121 2.0854L99.128 1.9146L98.888 4.7146L100.881 4.8854ZM100.124 3H120.124V0.999996H100.124V3ZM119.241 2.46915C120.093 4.07257 120.484 5.51131 120.484 6.8H122.484C122.484 5.10202 121.969 3.34076 121.007 1.53084L119.241 2.46915ZM121.406 5.80306C118.697 6.01556 116.566 6.12 115.004 6.12V8.12C116.642 8.12 118.832 8.01111 121.563 7.79693L121.406 5.80306ZM143.315 11.92L144.166 11.3953L142.382 8.50042L142.315 11.9003L143.315 11.92ZM142.515 52.56L141.515 52.5403L141.497 53.4676L142.42 53.5555L142.515 52.56ZM149.235 53.2H150.235V52.2907L149.33 52.2045L149.235 53.2ZM147.875 58V59H148.476L148.758 58.4692L147.875 58ZM129.475 58L128.479 58.0854L128.557 59H129.475V58ZM129.235 55.2L128.919 54.2513L128.171 54.5005L128.239 55.2854L129.235 55.2ZM136.595 53.28L136.751 54.2678L137.622 54.1303L137.595 53.2492L136.595 53.28ZM136.035 31.84L135.035 31.8597L135.035 31.8646L136.035 31.84ZM135.475 6.72L136.475 6.69298L136.452 5.8619L135.631 5.73223L135.475 6.72ZM128.275 4.8L127.279 4.7146L127.212 5.49031L127.948 5.74498L128.275 4.8ZM128.515 2V0.999996H127.597L127.519 1.9146L128.515 2ZM144.355 2L145.203 1.46934L144.909 0.999996H144.355V2ZM173.555 48.64L172.707 49.1707L174.675 52.3129L174.554 48.6076L173.555 48.64ZM172.195 6.72L173.194 6.68757L173.168 5.88643L172.381 5.73743L172.195 6.72ZM165.075 4.8L164.079 4.7146L164.011 5.50423L164.764 5.75049L165.075 4.8ZM165.315 2V0.999996H164.397L164.319 1.91459L165.315 2ZM185.315 2L186.198 1.53084L185.916 0.999996H185.315V2ZM186.675 6.8L186.755 7.79681L187.675 7.72319V6.8H186.675ZM180.275 7.12V6.12H179.291L179.275 7.10428L180.275 7.12ZM179.475 58V59H180.459L180.475 58.0157L179.475 58ZM171.715 58L170.864 58.5247L171.157 59H171.715V58ZM142.315 11.9003L141.515 52.5403L143.515 52.5797L144.315 11.9397L142.315 11.9003ZM142.42 53.5555L149.14 54.1955L149.33 52.2045L142.61 51.5645L142.42 53.5555ZM148.235 53.2C148.235 54.4887 147.844 55.9274 146.992 57.5308L148.758 58.4692C149.72 56.6592 150.235 54.898 150.235 53.2H148.235ZM147.875 57H129.475V59H147.875V57ZM130.471 57.9146L130.231 55.1146L128.239 55.2854L128.479 58.0854L130.471 57.9146ZM129.551 56.1487C132.401 55.1987 134.798 54.5762 136.751 54.2678L136.439 52.2922C134.339 52.6238 131.829 53.2813 128.919 54.2513L129.551 56.1487ZM137.595 53.2492C137.488 49.7862 137.301 42.6426 137.035 31.8154L135.035 31.8646C135.302 42.6907 135.489 49.8405 135.595 53.3108L137.595 53.2492ZM137.035 31.8203C136.821 20.9928 136.635 12.6166 136.475 6.69298L134.475 6.74701C134.635 12.6634 134.822 21.0338 135.035 31.8597L137.035 31.8203ZM135.631 5.73223C133.681 5.42441 131.341 4.80321 128.602 3.85501L127.948 5.74498C130.755 6.71679 133.215 7.37559 135.319 7.70776L135.631 5.73223ZM129.271 4.8854L129.511 2.0854L127.519 1.9146L127.279 4.7146L129.271 4.8854ZM128.515 3H144.355V0.999996H128.515V3ZM143.507 2.53065L172.707 49.1707L174.403 48.1093L145.203 1.46934L143.507 2.53065ZM174.554 48.6076L173.194 6.68757L171.196 6.75242L172.556 48.6724L174.554 48.6076ZM172.381 5.73743C170.464 5.37478 168.135 4.74821 165.386 3.8495L164.764 5.75049C167.562 6.66512 169.979 7.31855 172.009 7.70257L172.381 5.73743ZM166.071 4.8854L166.311 2.0854L164.319 1.91459L164.079 4.7146L166.071 4.8854ZM165.315 3H185.315V0.999996H165.315V3ZM184.432 2.46915C185.284 4.07257 185.675 5.51131 185.675 6.8H187.675C187.675 5.10202 187.16 3.34076 186.198 1.53084L184.432 2.46915ZM186.595 5.80318C183.94 6.0156 181.837 6.12 180.275 6.12V8.12C181.913 8.12 184.077 8.01106 186.755 7.79681L186.595 5.80318ZM179.275 7.10428L178.475 57.9843L180.475 58.0157L181.275 7.13572L179.275 7.10428ZM179.475 57H171.715V59H179.475V57ZM172.566 57.4753L144.166 11.3953L142.464 12.4447L170.864 58.5247L172.566 57.4753ZM205.648 40.8L204.878 40.1612L204.655 40.4301L204.648 40.7796L205.648 40.8ZM205.408 52.56L204.408 52.5396L204.389 53.4675L205.313 53.5555L205.408 52.56ZM212.128 53.2H213.128V52.2907L212.222 52.2045L212.128 53.2ZM210.768 58V59H211.369L211.651 58.4692L210.768 58ZM192.368 58L191.371 58.0854L191.45 59H192.368V58ZM192.128 55.2L191.805 54.2534L191.064 54.5056L191.131 55.2854L192.128 55.2ZM199.488 53.28L199.663 54.2646L200.509 54.114L200.487 53.2542L199.488 53.28ZM198.208 6.72L199.207 6.68908L199.182 5.88666L198.393 5.73743L198.208 6.72ZM191.088 4.8L190.091 4.7146L190.023 5.50423L190.777 5.75049L191.088 4.8ZM191.327 2V0.999996H190.41L190.331 1.9146L191.327 2ZM211.328 2L212.211 1.53084L211.929 0.999996H211.328V2ZM212.688 6.8L212.767 7.79681L213.688 7.72319V6.8H212.688ZM206.288 7.12V6.12H205.307L205.288 7.10077L206.288 7.12ZM205.968 22.16L204.968 22.1362L204.968 22.1481L205.968 22.16ZM205.808 31.6L204.808 31.5706L204.719 34.5866L206.592 32.2206L205.808 31.6ZM224.928 7.44L225.712 8.06057L226.846 6.62689L225.027 6.44496L224.928 7.44ZM218.528 6.8H217.528V7.70498L218.428 7.79503L218.528 6.8ZM219.888 2V0.999996H219.286L219.004 1.53084L219.888 2ZM240.208 2L241.205 1.93197L241.142 0.999996H240.208V2ZM240.448 5.52L240.776 6.4645L241.497 6.21368L241.445 5.45198L240.448 5.52ZM233.248 7.44L233.069 6.45613L232.711 6.52117L232.478 6.80077L233.248 7.44ZM217.488 26.4L216.718 25.7608L216.229 26.3493L216.67 26.9753L217.488 26.4ZM235.888 52.56L235.07 53.1353L235.334 53.5118L235.793 53.5555L235.888 52.56ZM242.608 53.2H243.608V52.2907L242.702 52.2045L242.608 53.2ZM241.248 58V59H241.849L242.131 58.4692L241.248 58ZM231.248 58L230.426 58.5703L230.724 59H231.248V58ZM213.088 31.84L213.909 31.2697L213.159 30.1889L212.318 31.2012L213.088 31.84ZM204.648 40.7796L204.408 52.5396L206.407 52.5804L206.647 40.8204L204.648 40.7796ZM205.313 53.5555L212.033 54.1955L212.222 52.2045L205.502 51.5645L205.313 53.5555ZM211.128 53.2C211.128 54.4887 210.736 55.9274 209.884 57.5308L211.651 58.4692C212.612 56.6592 213.128 54.898 213.128 53.2H211.128ZM210.768 57H192.368V59H210.768V57ZM193.364 57.9146L193.124 55.1146L191.131 55.2854L191.371 58.0854L193.364 57.9146ZM192.45 56.1466C194.912 55.3083 197.317 54.6816 199.663 54.2646L199.312 52.2954C196.858 52.7317 194.356 53.385 191.805 54.2534L192.45 56.1466ZM200.487 53.2542C199.954 32.5605 199.527 17.0384 199.207 6.68908L197.208 6.75091C197.528 17.0949 197.955 32.6128 198.488 53.3058L200.487 53.2542ZM198.393 5.73743C196.477 5.37478 194.147 4.74821 191.398 3.8495L190.777 5.75049C193.574 6.66512 195.992 7.31855 198.022 7.70257L198.393 5.73743ZM192.084 4.8854L192.324 2.0854L190.331 1.9146L190.091 4.7146L192.084 4.8854ZM191.327 3H211.328V0.999996H191.327V3ZM210.444 2.46915C211.296 4.07257 211.688 5.51131 211.688 6.8H213.688C213.688 5.10202 213.172 3.34076 212.211 1.53084L210.444 2.46915ZM212.608 5.80318C209.953 6.0156 207.849 6.12 206.288 6.12V8.12C207.926 8.12 210.089 8.01106 212.767 7.79681L212.608 5.80318ZM205.288 7.10077C205.181 12.6463 205.074 17.658 204.968 22.1362L206.967 22.1838C207.074 17.702 207.181 12.6871 207.287 7.13922L205.288 7.10077ZM204.968 22.1481C204.914 26.6282 204.861 29.767 204.808 31.5706L206.807 31.6294C206.861 29.8063 206.914 26.6517 206.967 22.1719L204.968 22.1481ZM206.592 32.2206L225.712 8.06057L224.143 6.81943L205.023 30.9794L206.592 32.2206ZM225.027 6.44496L218.627 5.80496L218.428 7.79503L224.828 8.43503L225.027 6.44496ZM219.528 6.8C219.528 5.51131 219.919 4.07257 220.771 2.46915L219.004 1.53084C218.043 3.34076 217.528 5.10202 217.528 6.8H219.528ZM219.888 3H240.208V0.999996H219.888V3ZM239.21 2.06802L239.45 5.58802L241.445 5.45198L241.205 1.93197L239.21 2.06802ZM240.119 4.5755C237.71 5.41335 235.36 6.03947 233.069 6.45613L233.426 8.42387C235.828 7.98719 238.278 7.33331 240.776 6.4645L240.119 4.5755ZM232.478 6.80077L216.718 25.7608L218.257 27.0392L234.017 8.07922L232.478 6.80077ZM216.67 26.9753L235.07 53.1353L236.705 51.9847L218.305 25.8247L216.67 26.9753ZM235.793 53.5555L242.513 54.1955L242.702 52.2045L235.982 51.5645L235.793 53.5555ZM241.608 53.2C241.608 54.4887 241.216 55.9274 240.364 57.5308L242.131 58.4692C243.092 56.6592 243.608 54.898 243.608 53.2H241.608ZM241.248 57H231.248V59H241.248V57ZM232.069 57.4297L213.909 31.2697L212.266 32.4103L230.426 58.5703L232.069 57.4297ZM212.318 31.2012L204.878 40.1612L206.417 41.4388L213.857 32.4788L212.318 31.2012ZM257.838 9.52L257.415 8.61382L257.101 8.76027L256.945 9.06945L257.838 9.52ZM257.198 46.64L256.337 47.148L256.341 47.1545L256.345 47.161L257.198 46.64ZM251.438 8.64L250.642 8.0347L250.641 8.03598L251.438 8.64ZM288.798 8L288.002 8.60582L288.01 8.61582L288.798 8ZM288.398 51.12L287.596 50.5226L287.592 50.5279L288.398 51.12ZM251.438 51.68L250.654 52.3005L250.658 52.3057L251.438 51.68ZM270.238 53.8C275.889 53.8 280.26 51.7948 283.173 47.6996C286.041 43.6671 287.398 37.7416 287.398 30.08H285.398C285.398 37.5651 284.062 42.9996 281.543 46.5404C279.069 50.0185 275.36 51.8 270.238 51.8V53.8ZM287.398 30.08C287.398 22.3923 286.041 16.4474 283.174 12.4017C280.262 8.29296 275.891 6.28 270.238 6.28V8.28C275.359 8.28 279.068 10.067 281.542 13.5583C284.062 17.1126 285.398 22.5677 285.398 30.08H287.398ZM270.238 6.28C265.084 6.28 260.792 7.03787 257.415 8.61382L258.261 10.4262C261.284 9.01547 265.259 8.28 270.238 8.28V6.28ZM256.945 9.06945C253.984 14.9375 252.518 21.6831 252.518 29.28H254.518C254.518 21.9436 255.932 15.5158 258.731 9.97055L256.945 9.06945ZM252.518 29.28C252.518 36.7842 253.757 42.7728 256.337 47.148L258.059 46.132C255.733 42.1872 254.518 36.6025 254.518 29.28H252.518ZM256.345 47.161C259.085 51.6508 263.817 53.8 270.238 53.8V51.8C264.286 51.8 260.324 49.8425 258.052 46.119L256.345 47.161ZM246.678 30.32C246.678 21.0519 248.576 14.0715 252.235 9.24402L250.641 8.03598C246.62 13.3419 244.678 20.8147 244.678 30.32H246.678ZM252.234 9.24529C255.877 4.45502 261.819 1.96 270.318 1.96V-0.0400047C261.431 -0.0400047 254.786 2.58497 250.642 8.0347L252.234 9.24529ZM270.318 1.96C278.909 1.96 284.696 4.26337 288.002 8.60577L289.594 7.39423C285.753 2.34995 279.22 -0.0400047 270.318 -0.0400047V1.96ZM288.01 8.61582C291.438 13.0018 293.238 19.7781 293.238 29.12H295.238C295.238 19.5819 293.411 12.2782 289.586 7.38418L288.01 8.61582ZM293.238 29.12C293.238 38.4377 291.315 45.5306 287.596 50.5226L289.2 51.7174C293.268 46.2561 295.238 38.6823 295.238 29.12H293.238ZM287.592 50.5279C283.996 55.4225 278.187 57.96 269.918 57.96V59.96C278.609 59.96 285.12 57.2709 289.204 51.7121L287.592 50.5279ZM269.918 57.96C261.68 57.96 255.86 55.5942 252.218 51.0543L250.658 52.3057C254.803 57.4725 261.303 59.96 269.918 59.96V57.96ZM252.222 51.0595C248.578 46.4536 246.678 39.5923 246.678 30.32H244.678C244.678 39.821 246.618 47.1998 250.654 52.3005L252.222 51.0595Z" fill="#180C0C"/>
</g>
<defs>
<filter id="filter0_d_1_7" x="0.60498" y="0.959991" width="297.633" height="66" filterUnits="userSpaceOnUse" color-interpolation-filters="sRGB">
<feFlood flood-opacity="0" result="BackgroundImageFix"/>
<feColorMatrix in="SourceAlpha" type="matrix" values="0 0 0 0 0 0 0 0 0 0 0 0 0 0 0 0 0 0 127 0" result="hardAlpha"/>
<feOffset dy="4"/>
<feGaussianBlur stdDeviation="2"/>
<feComposite in2="hardAlpha" operator="out"/>
<feColorMatrix type="matrix" values="0 0 0 0 0 0 0 0 0 0 0 0 0 0 0 0 0 0 0.25 0"/>
<feBlend mode="normal" in2="BackgroundImageFix" result="effect1_dropShadow_1_7"/>
<feBlend mode="normal" in="SourceGraphic" in2="effect1_dropShadow_1_7" result="shape"/>
</filter>
</defs>
</svg>
